PathFileType	4	(X/Y/Z)	0_coords_data.trc
DataRate	CameraRate	NumFrames	NumMarkers	Units	OrigDataRate	OrigDataStartFrame	OrigNumFrames
30.0	30.0	7	21	m	30.0	21	71
Frame#	Time	THUMB_TIP	THUMB_IP	THUMB_MCP	THUMB_CMC	INDEX_TIP	INDEX_DIP	INDEX_PIP	INDEX_MCP	MIDDLE_TIP	MIDDLE_DIP	MIDDLE_PIP	MIDDLE_MCP	RING_TIP	RING_DIP	RING_PIP	RING_MCP	PINKY_TIP	PINKY_DIP	PINKY_PIP	PINKY_MCP	WRIST
X1	Y1	Z1	X2	Y2	Z2	X3	Y3	Z3	X4	Y4	Z4	X5	Y5	Z5	X6	Y6	Z6	X7	Y7	Z7	X8	Y8	Z8	X9	Y9	Z9	X10	Y10	Z10	X11	Y11	Z11	X12	Y12	Z12	X13	Y13	Z13	X14	Y14	Z14	X15	Y15	Z15	X16	Y16	Z16	X17	Y17	Z17	X18	Y18	Z18	X19	Y19	Z19	X20	Y20	Z20	X21	Y21	Z21
20	0.6666666666666666	-0.007305940151214599	-0.136572998046875	0.9821849975585938	0.002214469909667968	-0.1099260025024414	0.9867269897460937	-0.009362019538879395	-0.08593879699707031	1.00402001953125	-0.012405599594116211	-0.04818119812011719	1.0190999755859376	0.01645319938659668	-0.09760410308837891	0.8787169799804687	0.011958000183105468	-0.08803399658203125	0.9004450073242187	0.0076644401550292965	-0.0778592987060547	0.9226539916992188	-0.005833159923553466	-0.060166301727294924	0.9566060180664062	0.018106300354003905	-0.034996601104736326	0.854583984375	0.015139699935913086	-0.035285900115966794	0.8818829956054688	0.010176899909973145	-0.03542800140380859	0.9114819946289062	-0.005380859851837158	-0.033975200653076174	0.9506630249023438	0.020685800552368162	0.020681100845336912	0.8661749877929688	0.016597299575805663	0.012469599723815918	0.8908200073242187	0.011315299987792968	0.002989959955215454	0.9173610229492187	0.001760509967803955	-0.010015199661254883	0.9533480224609375	0.03479290008544922	0.06433809661865235	0.9203800048828125	0.026037399291992187	0.04906159973144531	0.9334829711914062	0.016571599960327147	0.034390399932861325	0.9449089965820312	0.002207240104675293	0.0114197998046875	0.9626519775390625	-0.03853340148925781	-0.015968700408935547	1.03943994140625
21	0.7	-0.00546796989440918	-0.1353489990234375	0.9805900268554687	0.0034120700359344482	-0.10858999633789063	0.98610302734375	-0.008736550331115723	-0.08503119659423829	1.0035900268554687	-0.012095199584960938	-0.04746020126342773	1.0188200073242188	0.019627199172973633	-0.09629329681396484	0.8789959716796875	0.014096799850463868	-0.08681109619140626	0.90018798828125	0.008967650413513184	-0.07668949890136718	0.9225159912109375	-0.004981579780578613	-0.059137599945068356	0.9563629760742187	0.021332300186157227	-0.03349029922485352	0.8548900146484375	0.017075700759887694	-0.033703601837158204	0.8818209838867187	0.011231499671936035	-0.03388669967651367	0.9115029907226563	-0.004911709785461426	-0.03287310028076172	0.9504879760742188	0.023811700820922852	0.022193700790405273	0.8670260009765625	0.018388900756835937	0.014025699615478516	0.8912340087890624	0.012123299598693847	0.004340559959411621	0.9174530029296875	0.001811470031738281	-0.008905940055847168	0.9535339965820312	0.03531880187988281	0.06584110260009765	0.9211380004882812	0.02637700080871582	0.05042589950561523	0.9340170288085937	0.01685740089416504	0.035700401306152346	0.9452479858398437	0.0023071999549865723	0.012607600212097168	0.962718994140625	-0.038619800567626955	-0.015532999992370606	1.039010009765625
22	0.7333333333333333	-0.004633180141448975	-0.134343994140625	0.9797429809570313	0.003496129989624023	-0.10743699645996094	0.9856439819335937	-0.008915349960327149	-0.08406729888916016	1.0033099975585937	-0.012150500297546387	-0.04643429946899414	1.0184600219726563	0.02034910011291504	-0.09549440002441406	0.8789860229492188	0.013987700462341308	-0.08599839782714844	0.899801025390625	0.00864723014831543	-0.07587629699707031	0.9219229736328125	-0.005509729862213135	-0.058267200469970706	0.9558250122070312	0.022192300796508788	-0.03296900177001953	0.8547329711914062	0.01707859992980957	-0.03298450088500977	0.881405029296875	0.010642000198364258	-0.033079700469970705	0.9110369873046875	-0.005493929862976074	-0.032073299407958986	0.9500570068359375	0.025428699493408202	0.022291500091552733	0.866885986328125	0.01898710060119629	0.01446500015258789	0.8908350219726563	0.01217770004272461	0.004954450130462647	0.916926025390625	0.001445170044898986	-0.008072489738464356	0.9530540161132812	0.03615879821777344	0.06633599853515625	0.9209739990234375	0.026865800857543944	0.051146400451660155	0.9338839721679687	0.017015399932861327	0.03645899963378906	0.9450040283203125	0.0021132700443267823	0.01341510009765625	0.962333984375	-0.03870380020141601	-0.014400799751281739	1.0388699951171876
23	0.7666666666666667	-0.0037152600288391114	-0.13373100280761718	0.9796640014648438	0.003677799940109253	-0.10677799987792969	0.985448974609375	-0.009188260078430176	-0.08346769714355469	1.0034099731445312	-0.012338000297546387	-0.04585699844360352	1.0185800170898438	0.02131719970703125	-0.09564320373535157	0.8798259887695312	0.014176899909973145	-0.08589240264892578	0.9001309814453125	0.008358579635620117	-0.07558270263671875	0.9221519775390625	-0.005861289978027344	-0.05776530075073242	0.9558870239257813	0.0224778995513916	-0.03322750091552734	0.85489501953125	0.016874700546264648	-0.03297489929199219	0.881280029296875	0.01017590045928955	-0.03281740188598633	0.9109299926757812	-0.005964769840240479	-0.03157859992980957	0.9500339965820312	0.025894399642944335	0.021657199859619142	0.866697021484375	0.018634000778198243	0.0142923002243042	0.8904000244140625	0.01148859977722168	0.005105259895324707	0.9166259765625	0.0007578049898147581	-0.007569270133972168	0.9528920288085938	0.035723400115966794	0.06650990295410156	0.9203250122070312	0.02615570068359375	0.05146070098876953	0.9331810302734375	0.01629640007019043	0.03694300079345703	0.94443701171875	0.001471019983291626	0.014034299850463868	0.9620009765625	-0.038800399780273435	-0.013843299865722657	1.0386099853515625
24	0.8	-0.002546999931335449	-0.13346600341796874	0.9797650146484375	0.00430709981918335	-0.10638999938964844	0.9858480224609375	-0.008845809936523438	-0.08325969696044921	1.003780029296875	-0.012228400230407714	-0.04562239837646485	1.018780029296875	0.023015300750732423	-0.09575039672851562	0.880718017578125	0.015145899772644043	-0.08591329956054687	0.9007659912109375	0.009216429710388184	-0.0754761962890625	0.9225900268554688	-0.005599790096282959	-0.05756639862060547	0.9561320190429687	0.023463199615478516	-0.03314189910888672	0.8551179809570313	0.017457799911499025	-0.03283940124511719	0.8815850219726562	0.010444399833679199	-0.032645198822021486	0.9112529907226562	-0.00588523006439209	-0.03141959953308106	0.9503300170898438	0.02691900062561035	0.021892000198364257	0.867385009765625	0.01924220085144043	0.014525699615478515	0.8908179931640625	0.011740099906921387	0.00542170000076294	0.9169650268554688	0.00046513500809669404	-0.0073843998908996586	0.953218994140625	0.03645880126953125	0.06643479919433594	0.9210809936523437	0.02643560028076172	0.05162360000610351	0.9337540283203125	0.016306800842285155	0.037199199676513674	0.9449219970703125	0.001229789972305297	0.014317799568176269	0.9622509765625	-0.03882260131835937	-0.013801699638366699	1.0388299560546874
25	0.8333333333333334	-0.0007944300174713131	-0.133197998046875	0.9798259887695312	0.005017320156097412	-0.10600800323486329	0.986291015625	-0.008482799530029297	-0.08305069732666015	1.0043699951171876	-0.011768699645996094	-0.04538880157470703	1.0190800170898437	0.02440139961242676	-0.09632759857177735	0.8820910034179688	0.015799500465393065	-0.08640959930419922	0.9014390258789062	0.00938364028930664	-0.07591780090332031	0.9228770141601562	-0.005503220081329346	-0.05771530151367187	0.9566729736328125	0.02402470016479492	-0.03407429885864258	0.8554760131835938	0.017516899108886718	-0.03351689910888672	0.8817919921875	0.010356599807739258	-0.033102798461914065	0.9113330078125	-0.00592834997177124	-0.0315762996673584	0.950541015625	0.02759589958190918	0.021123399734497072	0.867448974609375	0.019475299835205077	0.013868300437927247	0.8907340087890625	0.011854700088500977	0.00498891019821167	0.9168469848632812	0.0005056220293045041	-0.007640289783477783	0.9532130126953124	0.03729309844970703	0.06566100311279296	0.92077001953125	0.026786699295043945	0.051163299560546875	0.9334609985351563	0.01636440086364746	0.036915199279785156	0.944676025390625	0.001195490002632141	0.014178199768066406	0.9620609741210937	-0.038236000061035155	-0.013625699996948243	1.039219970703125
26	0.8666666666666667	0.000213578999042511	-0.13291600036621093	0.9795250244140625	0.00550225019454956	-0.10571399688720703	0.9864130249023437	-0.008286430358886718	-0.08298940277099609	1.0044400024414062	-0.011473199844360352	-0.045235599517822266	1.0190599975585937	0.025451400756835937	-0.09681590270996093	0.8828389892578125	0.016251199722290038	-0.08686630249023437	0.9017860107421874	0.009649319648742676	-0.07613739776611328	0.9231400146484375	-0.005555650234222412	-0.057764999389648436	0.95660498046875	0.024234199523925783	-0.035124298095703124	0.8554509887695313	0.017665599822998045	-0.03428260040283203	0.8817329711914063	0.010404199600219726	-0.03360200119018555	0.911322998046875	-0.005913149833679199	-0.03177420043945312	0.9504030151367188	0.028194000244140625	0.01985330009460449	0.8669929809570313	0.019601499557495117	0.013110799789428711	0.8903189697265625	0.011864999771118163	0.004517350196838379	0.9165969848632812	0.0006149880290031431	-0.007785820007324219	0.9527869873046875	0.03774169921875	0.06487220001220703	0.9199619750976562	0.02690640068054199	0.05065750122070312	0.9327550048828125	0.016359800338745116	0.03665449905395508	0.944072021484375	0.001261100053787231	0.014065099716186523	0.9616820068359375	-0.037875499725341794	-0.013395299911499023	1.0390799560546875
